{
	"asset":{
		"generator":"Khronos glTF Blender I/O v3.6.28",
		"version":"2.0"
	},
	"extensionsUsed":[
		"KHR_materials_specular",
		"KHR_materials_ior"
	],
	"scene":0,
	"scenes":[
		{
			"name":"Scene",
			"nodes":[
				0,
				1
			]
		}
	],
	"nodes":[
		{
			"mesh":0,
			"name":"Mesh_0",
			"rotation":[
				0.44272905588150024,
				0.5606927275657654,
				0.431787371635437,
				0.55061274766922
			],
			"scale":[
				0.05000000074505806,
				0.05000000074505806,
				0.05000000074505806
			],
			"translation":[
				-0.14171478152275085,
				0.6338961720466614,
				-0.12891778349876404
			]
		},
		{
			"mesh":1,
			"name":"Jeep_Renegade_2016",
			"rotation":[
				0.70710688829422,
				0,
				0,
				0.7071066498756409
			],
			"scale":[
				0.10000000149011612,
				0.10000001639127731,
				0.10000001639127731
			],
			"translation":[
				-0.1520761251449585,
				0,
				0
			]
		}
	],
	"materials":[
		{
			"doubleSided":true,
			"name":"Material.001",
			"pbrMetallicRoughness":{
				"baseColorTexture":{
					"index":0
				}
			}
		},
		{
			"doubleSided":true,
			"extensions":{
				"KHR_materials_specular":{
					"specularColorTexture":{
						"index":1
					}
				},
				"KHR_materials_ior":{
					"ior":1.4500000476837158
				}
			},
			"name":"car_jeep_ren",
			"pbrMetallicRoughness":{
				"baseColorTexture":{
					"index":2
				},
				"metallicFactor":0
			}
		},
		{
			"doubleSided":true,
			"extensions":{
				"KHR_materials_specular":{
					"specularColorFactor":[
						0.7825480438613257,
						0.7825480438613257,
						0.7825480438613257
					]
				},
				"KHR_materials_ior":{
					"ior":1.4500000476837158
				}
			},
			"name":"FrontColor",
			"pbrMetallicRoughness":{
				"metallicFactor":0
			}
		}
	],
	"meshes":[
		{
			"name":"Mesh_0",
			"primitives":[
				{
					"attributes":{
						"POSITION":0,
						"NORMAL":1,
						"TEXCOORD_0":2
					},
					"indices":3,
					"material":0
				}
			]
		},
		{
			"name":"Jeep_Renegade_2016",
			"primitives":[
				{
					"attributes":{
						"POSITION":4,
						"NORMAL":5,
						"TEXCOORD_0":6
					},
					"indices":7,
					"material":1
				},
				{
					"attributes":{
						"POSITION":8,
						"NORMAL":9,
						"TEXCOORD_0":10
					},
					"indices":11,
					"material":2
				}
			]
		}
	],
	"textures":[
		{
			"sampler":0,
			"source":0
		},
		{
			"sampler":0,
			"source":1
		},
		{
			"sampler":0,
			"source":2
		}
	],
	"images":[
		{
			"bufferView":4,
			"mimeType":"image/jpeg",
			"name":"feche-o-gato-fofo-dentro-de-casa"
		},
		{
			"bufferView":9,
			"mimeType":"image/png",
			"name":"Image"
		},
		{
			"bufferView":10,
			"mimeType":"image/jpeg",
			"name":"car_jeep_ren"
		}
	],
	"accessors":[
		{
			"bufferView":0,
			"componentType":5126,
			"count":6,
			"max":[
				10,
				0,
				7.134055137634277
			],
			"min":[
				-10,
				0,
				-7.134055137634277
			],
			"type":"VEC3"
		},
		{
			"bufferView":1,
			"componentType":5126,
			"count":6,
			"type":"VEC3"
		},
		{
			"bufferView":2,
			"componentType":5126,
			"count":6,
			"type":"VEC2"
		},
		{
			"bufferView":3,
			"componentType":5123,
			"count":6,
			"type":"SCALAR"
		},
		{
			"bufferView":5,
			"componentType":5126,
			"count":6337,
			"max":[
				0.9700779914855957,
				2.0788700580596924,
				0.008586079813539982
			],
			"min":[
				-0.9700779914855957,
				-2.151129961013794,
				-1.9211000204086304
			],
			"type":"VEC3"
		},
		{
			"bufferView":6,
			"componentType":5126,
			"count":6337,
			"type":"VEC3"
		},
		{
			"bufferView":7,
			"componentType":5126,
			"count":6337,
			"type":"VEC2"
		},
		{
			"bufferView":8,
			"componentType":5123,
			"count":14127,
			"type":"SCALAR"
		},
		{
			"bufferView":11,
			"componentType":5126,
			"count":52,
			"max":[
				0.8439390063285828,
				0.5120660066604614,
				-1.1746799945831299
			],
			"min":[
				-0.8439390063285828,
				-1.8172600269317627,
				-1.2188800573349
			],
			"type":"VEC3"
		},
		{
			"bufferView":12,
			"componentType":5126,
			"count":52,
			"type":"VEC3"
		},
		{
			"bufferView":13,
			"componentType":5126,
			"count":52,
			"type":"VEC2"
		},
		{
			"bufferView":14,
			"componentType":5123,
			"count":75,
			"type":"SCALAR"
		}
	],
	"bufferViews":[
		{
			"buffer":0,
			"byteLength":72,
			"byteOffset":0,
			"target":34962
		},
		{
			"buffer":0,
			"byteLength":72,
			"byteOffset":72,
			"target":34962
		},
		{
			"buffer":0,
			"byteLength":48,
			"byteOffset":144,
			"target":34962
		},
		{
			"buffer":0,
			"byteLength":12,
			"byteOffset":192,
			"target":34963
		},
		{
			"buffer":0,
			"byteLength":1232936,
			"byteOffset":204
		},
		{
			"buffer":0,
			"byteLength":76044,
			"byteOffset":1233140,
			"target":34962
		},
		{
			"buffer":0,
			"byteLength":76044,
			"byteOffset":1309184,
			"target":34962
		},
		{
			"buffer":0,
			"byteLength":50696,
			"byteOffset":1385228,
			"target":34962
		},
		{
			"buffer":0,
			"byteLength":28254,
			"byteOffset":1435924,
			"target":34963
		},
		{
			"buffer":0,
			"byteLength":133166,
			"byteOffset":1464180
		},
		{
			"buffer":0,
			"byteLength":340145,
			"byteOffset":1597348
		},
		{
			"buffer":0,
			"byteLength":624,
			"byteOffset":1937496,
			"target":34962
		},
		{
			"buffer":0,
			"byteLength":624,
			"byteOffset":1938120,
			"target":34962
		},
		{
			"buffer":0,
			"byteLength":416,
			"byteOffset":1938744,
			"target":34962
		},
		{
			"buffer":0,
			"byteLength":150,
			"byteOffset":1939160,
			"target":34963
		}
	],
	"samplers":[
		{
			"magFilter":9729,
			"minFilter":9987
		}
	],
	"buffers":[
		{
			"byteLength":1939312,
			"uri":"data:application/octet-stream;base64,"
		}
	]
}
